<svg xmlns="http://www.w3.org/2000/svg" viewBox="0 0 1024 1024">
  <path d="M224 338h116c24 0 44 20 44 44v112H224c-24 0-44-20-44-44v-68c0-24 20-44 44-44z"/>
  <path d="M232 390h34v34h-34z"/>
  <path d="M286 390h34v34h-34z"/>
  <path d="M232 440h34v34h-34z"/>
  <path d="M286 440h34v34h-34z"/>
  <path d="M458 258h198c24 0 44 20 44 44v32H458z"/>
  <path d="M544 306h42v96h-42z"/>
  <path d="M430 382h314c16 0 30 14 30 30s-14 30-30 30H430c-16 0-30-14-30-30s14-30 30-30z"/>
  <path d="M684 426h46v160h-46z"/>
  <path d="M770 320h24v266h-24z"/>
  <path d="M732 300h96c16 0 30 14 30 30s-14 30-30 30h-96c-16 0-30-14-30-30s14-30 30-30z"/>
</svg>
